<?xml version="1.0" encoding="utf-8"?>
<!-- Generator: Adobe Illustrator 22.0.1, SVG Export Plug-In . SVG Version: 6.00 Build 0)  -->
<svg version="1.1" id="Слой_1" xmlns="http://www.w3.org/2000/svg" xmlns:xlink="http://www.w3.org/1999/xlink" x="0px" y="0px"
	 viewBox="0 0 256 256" style="enable-background:new 0 0 256 256;" xml:space="preserve">
<style type="text/css">
	.st0{fill:#FFFFFF;}
</style>
<rect width="256" height="256"/>
<g>
	<path class="st0" d="M161.7,141.1c-10.2,22.8-31.1,44.9-62.6,66.5c-3.3,2.8-6.3,5.3-8.9,7.5c-1.8,1.3-3.4,1.3-5-0.2
		c-1.6-1.6-1.6-3.1,0-4.8l0.7-0.7c0.1-1.1,0.6-1.9,1.6-2.4v-0.1c-0.5-0.8-0.7-1.7-0.5-2.6c0.1-1,0.6-1.8,1.5-2.4
		c18.9-14,36-30.9,51.2-50.7c1.5-2.5,2.8-4.7,3.8-6.6c1.6-2.8,3-5.3,4-7.7c3-6.3,4.5-11.5,4.6-15.6c-2.7-6.1-8.4-9.1-17.2-8.9
		c-6.5,0.5-13.7,1.8-21.7,3.8c-3.2,18-7.6,34.3-13.1,49c-0.7,1.8-2,2.6-4,2.4c-2-0.2-3-1.3-2.9-3.4l0.2-2.9
		c-1.4,4.5-3.2,8.8-5.4,12.9c-0.8,1.5-2.2,2-3.9,1.5c-1.8-0.5-2.6-1.6-2.6-3.3c0-14.7,2.1-31.8,6.3-51.3c1.3-5.8,3.2-14.2,5.9-25.2
		l3.1-12.6l3-12.7c-5.1,2.4-9.5,5-13.1,7.8c-0.8,0.6-1.7,0.8-2.5,0.5c-0.8-0.2-1.4-0.7-1.9-1.6c-0.5-0.8-0.7-1.6-0.5-2.5
		c0.1-1,0.6-1.8,1.5-2.4c5.9-4.5,13.9-8.9,24.2-13.1c1.7-5,3.7-10.7,5.9-16.9c0.6-1.8,1.9-2.6,3.9-2.4c2,0.2,3,1.3,3,3.4l-0.2,3.8
		c1.9,0.7,2.7,2.1,2.4,4.1l-0.2,1.1c10-4.4,18.1-6.7,24.3-6.9c8.4-0.3,13.2,3.3,14.5,10.7c0.5,2.8,0.1,5.8-1.2,9.2
		c1.3,7.7-4.7,16.4-18.1,26.1c9.7-2.1,17.3-1.8,22.9,1.1c6.6,3.3,10,9.9,10.2,19.8C174.7,120.1,170.4,129.7,161.7,141.1z M111.7,68
		c-3.2,9.6-5.8,18.5-7.8,26.7l-1,12.4l4.4-17.9c1.7-7.1,3.1-13.1,4.1-18L111.7,68z M148.2,68c2.5-7.1-2.9-9.5-16.2-7.2h-0.2
		c-4.1,0.8-7.9,1.7-11.5,2.6h-0.1l-1.7,8.5c-0.6,8.5-1.5,17-2.6,25.6c2-1.8,4.6-4,7.8-6.6l3.9-3.2l3.9-3.3c6.1-5.1,11-9.8,14.6-14
		c0.3-0.3,0.6-0.6,0.8-1C147.4,69.1,147.8,68.6,148.2,68z M167.4,111.1c-0.1-5.8-3.2-9.8-9.4-12.2c-5.6-2.1-11.4-2.3-17.5-0.6
		c-4.7,1.3-9.2,3-13.8,4.9c2-0.1,4-0.2,5.8-0.2C153.1,98.6,164.7,101.3,167.4,111.1z M154.1,56.3c0-3-2.4-4.2-7.2-3.7
		c0.8,0.2,1.6,0.5,2.3,0.7l0.7,0.3l0.7,0.4l0.8,0.4l0.7,0.4l0.6,0.4L154.1,56.3z"/>
</g>
</svg>
